<svg xmlns="http://www.w3.org/2000/svg" viewBox="0 0 220 165">
  <style>
    .leg {
      transform-box: fill-box;
      transform-origin: 50% 0;
    }
    .leg-a {
      animation: leg-forward .55s ease-in-out infinite alternate;
    }
    .leg-b {
      animation: leg-back .55s ease-in-out infinite alternate;
    }
    @keyframes leg-forward {
      from { transform: rotate(-18deg); }
      to { transform: rotate(18deg); }
    }
    @keyframes leg-back {
      from { transform: rotate(18deg); }
      to { transform: rotate(-18deg); }
    }
    @media (prefers-reduced-motion: reduce) {
      .leg { animation: none; }
    }
  </style>

  <path d="M165 75 C205 72 205 25 190 22" fill="none" stroke="#111" stroke-linecap="round" stroke-width="12"/>

  <g class="leg leg-a">
    <path d="M78 94 L72 143 L59 151" fill="none" stroke="#111" stroke-linecap="round" stroke-linejoin="round" stroke-width="11"/>
  </g>
  <g class="leg leg-b">
    <path d="M102 97 L108 145 L121 151" fill="none" stroke="#111" stroke-linecap="round" stroke-linejoin="round" stroke-width="11"/>
  </g>
  <g class="leg leg-b">
    <path d="M132 96 L126 143 L114 151" fill="none" stroke="#111" stroke-linecap="round" stroke-linejoin="round" stroke-width="11"/>
  </g>
  <g class="leg leg-a">
    <path d="M154 91 L160 141 L174 149" fill="none" stroke="#111" stroke-linecap="round" stroke-linejoin="round" stroke-width="11"/>
  </g>

  <ellipse cx="121" cy="77" rx="58" ry="32" fill="#111"/>
  <path d="M39 27 L57 39 C66 35 80 35 89 39 L108 27 L106 65 C106 83 92 96 73 96 C53 96 39 83 39 65 Z" fill="#111"/>
  <ellipse cx="59" cy="59" rx="8" ry="10" fill="#fff"/>
  <ellipse cx="86" cy="59" rx="8" ry="10" fill="#fff"/>
  <circle cx="59" cy="61" r="3.5" fill="#111"/>
  <circle cx="86" cy="61" r="3.5" fill="#111"/>
  <path d="M68 73 L77 73 L72.5 80 Z" fill="#fff"/>
  <path d="M51 83 Q73 98 95 82" fill="none" stroke="#ff6b81" stroke-linecap="round" stroke-width="6"/>
  <circle cx="74" cy="94" r="6.5" fill="#ffd166" stroke="#fff" stroke-width="2"/>
  <circle cx="74" cy="94" r="2" fill="#111"/>
</svg>
